Coordinates
version=1
nRows=14
nColumns=36
inDegrees=yes

Units are S.I. units (second, meters, Newtons, ...)
If the header above contains a line with 'inDegrees', this indicates whether rotational values are in degrees (yes) or radians (no).

endheader
time	pelvis_tilt	pelvis_list	pelvis_rotation	pelvis_tx	pelvis_ty	pelvis_tz	hip_flexion_r	hip_adduction_r	hip_rotation_r	knee_angle_r	knee_angle_r_beta	ankle_angle_r	subtalar_angle_r	mtp_angle_r	hip_flexion_l	hip_adduction_l	hip_rotation_l	knee_angle_l	knee_angle_l_beta	ankle_angle_l	subtalar_angle_l	mtp_angle_l	lumbar_extension	lumbar_bending	lumbar_rotation	arm_flex_r	arm_add_r	arm_rot_r	elbow_flex_r	pro_sup_r	arm_flex_l	arm_add_l	arm_rot_l	elbow_flex_l	pro_sup_l
      0.00000000	      2.75420139	      0.33845594	     14.65264063	     -0.10511699	      0.92436166	      0.04837908	     -0.43115948	      5.26221975	     -4.60060324	      8.52631039	      0.14881219	     14.24710724	      6.52900424	     -7.63209732	      8.69483749	    -12.47525044	     -6.67925436	      9.78548486	      0.17078893	      5.51258868	      4.39477739	     -7.63209732	      3.98657198	      4.50522320	     -1.81999770	    -54.89328675	     28.94994343	   -212.62815621	     94.70369701	     85.17818763	     56.15346539	     23.51048882	     68.16320000	    102.01129976	     98.14759283
      0.01666670	      0.33352446	     -0.29747723	     13.74629345	     -0.10389383	      0.91829561	      0.04708240	      2.06931166	      5.03690406	     -4.33136713	      6.95729473	      0.12142770	     13.20901029	      6.36865038	     -7.62660888	     11.07099162	    -12.47984740	     -7.79089531	      9.03371307	      0.15766804	      2.84708159	      5.40076903	     -7.62660888	      7.50984012	      5.11060791	     -0.85694361	    -56.76404478	     28.44697833	   -216.86276046	     98.28644049	     83.95000511	     56.16335401	     23.79299807	     67.86816476	    104.56051086	     97.70977605
      0.03333330	     -1.29910650	     -0.88483659	     13.63267985	     -0.10392438	      0.91767716	      0.04613140	      3.32947162	      5.31140619	     -4.55468588	      6.07452201	      0.10602041	     10.68337317	      4.63677547	     -7.60101676	     12.91038483	    -12.60301572	     -8.24405856	      8.67516359	      0.15141017	      0.59855644	      5.44701088	     -7.60101676	      9.70379899	      5.63868779	      0.31858240	    -57.06035518	     35.66469159	   -211.70434569	     85.06158240	     80.33603836	     55.45305194	     25.92437058	     69.03846276	    103.31880565	     95.56013077
      0.05000000	     -1.72727958	     -0.77514838	     13.26279378	     -0.10145882	      0.91280075	      0.04607664	      3.65913109	      5.13747302	     -4.44941550	      6.29149266	      0.10980726	     11.20906320	      4.52500374	     -7.59598346	     13.16717405	    -12.45958270	     -8.75702560	      8.62711500	      0.15057156	      0.22688103	      5.56018046	     -7.59598346	     10.69388358	      5.23052418	      1.23096967	    -60.79272416	     39.44028465	   -206.50297129	     74.94319394	     77.78823864	     55.92317550	     27.05904479	     69.92453109	    103.36249860	     94.50936411
      0.06666670	     -2.00256302	     -0.80042210	     13.56513113	     -0.10279670	      0.91322820	      0.04571660	      3.81651149	      5.13579324	     -4.73783056	      5.96943190	      0.10418624	     11.86830770	      4.19668872	     -7.58642760	     13.58748432	    -12.40523904	     -8.98014363	      8.49819429	      0.14832147	     -0.19151897	      5.88574951	     -7.58642760	     10.42271077	      5.44087920	      4.21690431	    -53.70067347	     39.95172502	   -213.81875932	     84.22790168	     76.05922198	     55.84617861	     28.59084773	     70.84086511	    103.97863470	     94.24407400
      0.08333330	     -2.10404990	     -0.70368332	     13.85931084	     -0.10407771	      0.91457301	      0.04597589	      3.81989027	      5.07176988	     -4.80528544	      5.78847060	      0.10102787	     12.43404184	      3.81659059	     -7.57189817	     13.89511235	    -12.19212961	     -8.76328510	      8.63356250	      0.15068409	     -0.17798736	      5.97624740	     -7.57189817	     10.24276106	      5.23836245	      4.93646677	    -49.15201788	     38.18140067	   -219.15408480	     92.12377902	     73.68130671	     55.19024506	     28.90006900	     71.30118443	    102.84450232	     92.49856988
      0.10000000	     -2.08532240	     -0.62932241	     14.12052020	     -0.10487840	      0.91481853	      0.04614780	      3.79867912	      5.01108492	     -4.97782674	      5.68759511	      0.09926726	     12.87035483	      3.68028731	     -7.55492087	     14.11693191	    -12.06580145	     -8.63717068	      8.81534179	      0.15385674	     -0.04850180	      6.37408266	     -7.55492087	      9.99290629	      5.11935356	      5.16279101	    -45.58800383	     38.28443535	   -221.47512074	     96.98879463	     71.53936490	     55.41412685	     28.89332385	     71.11034331	    101.98114121	     90.74959955
      0.11666670	     -2.03294285	     -0.51461582	     14.39384432	     -0.10387029	      0.91527619	      0.04553076	      3.64458210	      4.91134137	     -4.98771907	      5.56981538	      0.09721162	     13.06847807	      3.35122881	     -7.54869348	     14.08177883	    -11.87887225	     -8.41581973	      8.82726082	      0.15406477	     -0.04848539	      6.39702452	     -7.54869348	      9.83322456	      5.04094688	      5.45299203	    -44.64186314	     38.50078141	   -222.70992757	     98.23032147	     70.65213690	     55.42382018	     29.12682408	     70.92636404	    101.76852075	     89.78834508
      0.13333330	     -1.76150214	     -0.43584568	     14.43915383	     -0.10266892	      0.91535544	      0.04609536	      3.35673183	      4.90659131	     -4.92590802	      5.65978148	      0.09878182	     12.96415869	      3.40246320	     -7.54144661	     13.79832651	    -11.84301372	     -8.26265372	      8.97582917	      0.15665777	      0.23029274	      6.54375766	     -7.54144661	     10.18498912	      4.79814341	      3.29662246	    -51.84664762	     40.14653263	   -214.41122224	     86.15481222	     69.54277975	     56.18906164	     28.31036241	     70.75453373	    100.87398280	     88.71332120
      0.15000000	     -1.70144655	     -0.41772382	     14.63995276	     -0.10219867	      0.91626520	      0.04424815	      3.11979666	      4.88334783	     -4.94638306	      5.44809881	      0.09508726	     12.72934117	      2.93692719	     -7.53565958	     13.65399583	    -11.73076253	     -8.26857971	      8.84145448	      0.15431249	      0.28986094	      6.55136077	     -7.53565958	     10.08087043	      4.64669612	      3.06261269	    -54.46399186	     37.37815795	   -216.04113166	     85.44933963	     68.52367821	     56.88674973	     27.96527560	     70.28876344	    101.41784958	     87.50421119
      0.16666670	     -1.52785178	     -0.39744737	     14.59512384	     -0.10079706	      0.91583712	      0.04472244	      2.84683686	      4.89370036	     -5.01253084	      5.50369660	      0.09605763	     12.62733615	      3.24971240	     -7.53024677	     13.31843966	    -11.72902997	     -8.19938851	      8.84343750	      0.15434710	      0.58481615	      6.76503561	     -7.53024677	     10.63924201	      4.33935959	      0.91933996	    -62.31599737	     35.73387735	   -211.35233701	     73.95146594	     67.37494212	     56.63082920	     27.03247036	     70.60579386	    101.03550750	     87.29515737
      0.18333330	     -1.46487079	     -0.35654449	     14.64802158	     -0.10191119	      0.91728915	      0.04542808	      2.75598163	      4.87224006	     -4.92472041	      5.50883249	      0.09614726	     12.53658871	      3.23164344	     -7.51957773	     13.18899440	    -11.68132182	     -8.03343137	      8.77801584	      0.15320528	      0.67980170	      6.77258543	     -7.51957773	     10.92438491	      3.99404725	     -0.54143308	    -66.21578186	     35.03628875	   -207.57424539	     67.39514391	     65.64964276	     56.91864298	     26.18309556	     70.06612673	    101.43311779	     93.58384380
      0.20000000	     -1.32148621	     -0.29662563	     14.60478998	     -0.10224940	      0.91772889	      0.04567108	      2.58333461	      4.86590716	     -4.79264615	      5.42733312	      0.09472483	     12.21918860	      3.11307278	     -7.51705638	     12.96670026	    -11.65984777	     -7.92362844	      8.62402546	      0.15051764	      0.49007328	      6.72640845	     -7.51705638	     10.90668309	      3.72644778	     -1.85083687	    -68.79243385	     33.02926514	   -208.05522287	     64.56578398	     64.65382818	     56.76661959	     25.12018475	     70.10080349	    101.58379801	     91.92033119
      0.21666670	     -1.32412708	     -0.23299400	     14.57704667	     -0.10159848	      0.91859411	      0.04559358	      2.55693746	      4.80715118	     -4.78022364	      5.33330578	      0.09308375	     12.06650577	      3.28079629	     -7.51539748	     12.89370604	    -11.59049048	     -7.88423731	      8.49653020	      0.14829243	      0.31792326	      6.77361870	     -7.51539748	     10.98867713	      3.56070471	     -2.82763570	    -70.54133784	     31.37568863	   -209.35925296	     62.05474764	     63.84194995	     56.11266090	     24.40196310	     70.05377061	    101.89677675	     91.11763472
